#!OML:ASF H:\Pregnant\Project 1\Capture day 1\Session 1\femalepreg.ASF
:FULLY-SPECIFIED
:DEGREES
1811
root 12.0771 15.6712 -0.873037 27.3479 -29.0535 -8.40981
lowerback -16.613 3.8884 10.524
upperback -6.94418 3.3646 0.257812
thorax 2.38088 1.46838 -5.03208
lowerneck -19.4344 6.6664 7.00164
upperneck 23.993 7.68795 -1.96122
head 11.3871 3.86341 -0.678134
rclavicle -4.14031e-015 1.00386e-014
rhumerus -39.1941 -4.43625 -80.0466
rradius 36.3896
rwrist -50.9314
rhand -22.6904 -38.228
rfingers 7.12502
rthumb 3.74205 -68.1749
lclavicle -4.14031e-015 1.00386e-014
lhumerus -40.4434 -22.7408 91.9687
lradius 79.9204
lwrist 60.2796
lhand -26.1257 12.4259
lfingers 7.12502
lthumb 0.4243 42.4052
rfemur -20.6098 12.6653 28.4253
rtibia 23.5476
rfoot -21.0215 -19.5575
rtoes -0.513942
lfemur -50.4434 -10.8194 -2.54886
ltibia 20.7279
lfoot 10.6063 17.7367
ltoes -34.2421
1812
root 12.0769 15.6701 -0.882675 27.4644 -29.0676 -8.40095
lowerback -16.687 3.95183 10.5916
upperback -6.9625 3.42635 0.292623
thorax 2.41055 1.49846 -5.01725
lowerneck -19.3965 6.65912 6.9722
upperneck 23.8224 7.74626 -2.17292
head 11.3258 3.86105 -0.744034
rclavicle -1.19348e-014 -6.4605e-016
rhumerus -39.5181 -7.12012 -78.0197
rradius 34.1322
rwrist -49.0935
rhand -22.7399 -38.2788
rfingers 7.12502
rthumb 3.69423 -68.2265
lclavicle -1.19348e-014 -6.4605e-016
lhumerus -40.8599 -22.7737 91.9509
lradius 79.7224
lwrist 60.5926
lhand -26.638 11.8852
lfingers 7.12502
lthumb -0.0704693 41.8649
rfemur -20.8202 12.7798 28.4011
rtibia 23.6386
rfoot -21.0705 -19.6992
rtoes -0.375646
lfemur -50.5186 -10.8314 -2.43111
ltibia 20.5322
lfoot 10.9027 17.6811
ltoes -34.298
1813
root 12.0771 15.6684 -0.891308 27.567 -29.0736 -8.39182
lowerback -16.7407 4.01727 10.682
upperback -6.97271 3.49032 0.309638
thorax 2.44053 1.52963 -5.03425
lowerneck -19.3614 6.65805 6.97305
upperneck 23.628 7.80313 -2.38875
head 11.258 3.86054 -0.816398
rclavicle 2.87151e-014 2.22639e-014
rhumerus -39.9365 -9.96127 -75.8072
rradius 31.9572
rwrist -47.1191
rhand -22.7477 -38.3315
rfingers 7.12502
rthumb 3.68671 -68.2794
lclavicle 2.87151e-014 2.22639e-014
lhumerus -41.2527 -22.7982 91.8803
lradius 79.5355
lwrist 60.8682
lhand -26.9753 11.7682
lfingers 7.12502
lthumb -0.396207 41.7475
rfemur -21.013 12.845 28.3828
rtibia 23.7314
rfoot -21.1408 -19.7887
rtoes -0.213382
lfemur -50.5823 -10.8525 -2.31706
ltibia 20.3403
lfoot 11.2114 17.6195
ltoes -34.3284
1814
root 12.0778 15.6667 -0.899131 27.6695 -29.0782 -8.39086
lowerback -16.7705 4.07797 10.7881
upperback -6.98522 3.54878 0.327213
thorax 2.45528 1.55709 -5.06153
lowerneck -19.3127 6.66672 6.98923
upperneck 23.412 7.87235 -2.61849
head 11.182 3.86575 -0.89457
rclavicle -2.64492e-014 2.55935e-014
rhumerus -40.4836 -12.8924 -73.3927
rradius 29.8971
rwrist -45.0245
rhand -22.7496 -38.4379
rfingers 7.12502
rthumb 3.68493 -68.3858
lclavicle -2.64492e-014 2.55935e-014
lhumerus -41.6448 -22.7743 91.7767
lradius 79.359
lwrist 61.085
lhand -27.1537 12.0304
lfingers 7.12502
lthumb -0.568535 42.0094
rfemur -21.198 12.8445 28.3763
rtibia 23.8203
rfoot -21.2216 -19.8009
rtoes -0.0478866
lfemur -50.6473 -10.8823 -2.19432
ltibia 20.1591
lfoot 11.5384 17.5473
ltoes -34.3069
1815
root 12.0789 15.6649 -0.905898 27.7589 -29.0791 -8.39913
lowerback -16.7622 4.13595 10.9165
upperback -6.99404 3.60544 0.340539
thorax 2.45493 1.58287 -5.1077
lowerneck -19.274 6.68289 7.02552
upperneck 23.1854 7.94755 -2.86187
head 11.1065 3.87392 -0.979382
rclavicle -1.56213e-014 -4.72114e-014
rhumerus -41.1891 -15.8773 -70.7872
rradius 27.9968
rwrist -42.8534
rhand -22.8191 -38.6629
rfingers 7.12502
rthumb 3.61778 -68.6119
lclavicle -1.56213e-014 -4.72114e-014
lhumerus -42.0382 -22.7288 91.6501
lradius 79.1937
lwrist 61.2849
lhand -27.2183 12.5748
lfingers 7.12502
lthumb -0.630904 42.5536
rfemur -21.3566 12.7705 28.3882
rtibia 23.9007
rfoot -21.3058 -19.7378
rtoes 0.0882169
lfemur -50.7014 -10.9149 -2.07667
ltibia 19.9947
lfoot 11.8793 17.4399
ltoes -34.2135
1816
root 12.0807 15.663 -0.911655 27.8374 -29.0735 -8.41574
lowerback -16.7176 4.19212 11.0676
upperback -6.99637 3.66141 0.346458
thorax 2.44398 1.60784 -5.17606
lowerneck -19.2655 6.70318 7.08603
upperneck 22.9556 8.02186 -3.12082
head 11.038 3.88172 -1.07263
rclavicle -8.72614e-015 4.69908e-014
rhumerus -42.0738 -18.8542 -68.0177
rradius 26.2891
rwrist -40.6437
rhand -22.9528 -39.0019
rfingers 7.12502
rthumb 3.48867 -68.953
lclavicle -8.72614e-015 4.69908e-014
lhumerus -42.4282 -22.6761 91.4978
lradius 79.0396
lwrist 61.4844
lhand -27.2223 13.2434
lfingers 7.12502
lthumb -0.634772 43.2222
rfemur -21.4919 12.6457 28.4157
rtibia 23.9717
rfoot -21.3829 -19.6251
rtoes 0.188268
lfemur -50.7535 -10.971 -1.94762
ltibia 19.8486
lfoot 12.2418 17.3202
ltoes -34.0502
1817
root 12.0831 15.6609 -0.91641 27.9078 -29.0565 -8.43837
lowerback -16.6401 4.24163 11.2341
upperback -6.99665 3.71097 0.353861
thorax 2.41761 1.62884 -5.25422
lowerneck -19.2803 6.72724 7.15913
upperneck 22.7286 8.09947 -3.39648
head 10.977 3.8899 -1.17235
rclavicle 2.04143e-014 1.3741e-014
rhumerus -43.1527 -21.6951 -65.1312
rradius 24.8096
rwrist -38.4776
rhand -23.1414 -39.4327
rfingers 7.12502
rthumb 3.30658 -69.3868
lclavicle 2.04143e-014 1.3741e-014
lhumerus -42.8188 -22.5924 91.3278
lradius 78.8947
lwrist 61.6522
lhand -27.1641 14.0174
lfingers 7.12502
lthumb -0.578619 43.9963
rfemur -21.6093 12.4877 28.4554
rtibia 24.0348
rfoot -21.4519 -19.4868
rtoes 0.245832
lfemur -50.8094 -11.0517 -1.80844
ltibia 19.719
lfoot 12.6264 17.1912
ltoes -33.8305
1818
root 12.0862 15.6588 -0.920273 27.9737 -29.0271 -8.46659
lowerback -16.5377 4.29129 11.4208
upperback -6.98932 3.76165 0.352451
thorax 2.38812 1.65032 -5.35388
lowerneck -19.382 6.76816 7.30926
upperneck 22.5399 8.1845 -3.72327
head 10.9541 3.90029 -1.2985
rclavicle -3.60126e-014 -3.21286e-014
rhumerus -44.4049 -24.3362 -62.203
rradius 23.5752
rwrist -36.4361
rhand -23.3639 -39.9843
rfingers 7.12502
rthumb 3.09163 -69.9417
lclavicle -3.60126e-014 -3.21286e-014
lhumerus -43.2002 -22.5146 91.135
lradius 78.7595
lwrist 61.8261
lhand -27.1284 14.7173
lfingers 7.12502
lthumb -0.544137 44.6963
rfemur -21.7166 12.3264 28.5017
rtibia 24.095
rfoot -21.5117 -19.353
rtoes 0.27645
lfemur -50.8713 -11.1644 -1.65176
ltibia 19.5988
lfoot 13.0351 17.0696
ltoes -33.5882
1819
root 12.09 15.6564 -0.923231 28.0336 -28.9802 -8.49622
lowerback -16.4197 4.33122 11.6155
upperback -6.97519 3.80049 0.35731
thorax 2.35585 1.66605 -5.45431
lowerneck -19.547 6.82499 7.5034
upperneck 22.3854 8.28528 -4.093
head 10.9616 3.91498 -1.44244
rclavicle 2.64632e-014 -1.85864e-014
rhumerus -45.777 -26.6329 -59.336
rradius 22.5943
rwrist -34.6251
rhand -23.5978 -40.6315
rfingers 7.12502
rthumb 2.8658 -70.592
lclavicle 2.64632e-014 -1.85864e-014
lhumerus -43.5758 -22.416 90.9345
lradius 78.6314
lwrist 62.0195
lhand -27.148 15.3041
lfingers 7.12502
lthumb -0.562991 45.2831
rfemur -21.8148 12.1784 28.5505
rtibia 24.1549
rfoot -21.5659 -19.244
rtoes 0.290277
lfemur -50.9401 -11.3184 -1.47344
ltibia 19.4838
lfoot 13.4622 16.9725
ltoes -33.3454
1820
root 12.0941 15.6537 -0.925296 28.0836 -28.9045 -8.51687
lowerback -16.2991 4.35826 11.8111
upperback -6.94947 3.82256 0.365977
thorax 2.33162 1.67446 -5.55442
lowerneck -19.7572 6.89096 7.71876
upperneck 22.2425 8.39354 -4.48336
head 10.9853 3.93123 -1.59466
rclavicle -1.04051e-015 -7.55382e-015
rhumerus -47.1996 -28.5712 -56.6052
rradius 21.8378
rwrist -33.0817
rhand -23.848 -41.3565
rfingers 7.12502
rthumb 2.62414 -71.3201
lclavicle -1.04051e-015 -7.55382e-015
lhumerus -43.9405 -22.3108 90.7341
lradius 78.5072
lwrist 62.2618
lhand -27.2995 15.5151
lfingers 7.12502
lthumb -0.709335 45.4936
rfemur -21.9048 12.0626 28.5933
rtibia 24.2158
rfoot -21.6184 -19.1884
rtoes 0.307749
lfemur -51.0176 -11.5078 -1.29195
ltibia 19.3715
lfoot 13.8855 16.8866
ltoes -33.1315
